<svg width="73" height="47" viewBox="0 0 73 47" fill="none" xmlns="http://www.w3.org/2000/svg"><path fill-rule="evenodd" clip-rule="evenodd" d="M36 34c5.523 0 10-4.477 10-10s-4.477-10-10-10-10 4.477-10 10 4.477 10 10 10z" fill="currentColor"/><path fill-rule="evenodd" clip-rule="evenodd" d="M0 23.5C0 21.821 16.59 0 36.5 0S73 21.82 73 23.5C73 25.179 56.409 47 36.5 47 16.59 47 0 25.177 0 23.5zm19.91 0c0 9.271 7.424 16.785 16.59 16.785 9.165 0 16.59-7.514 16.59-16.785 0-9.274-7.425-16.785-16.59-16.785-9.166 0-16.59 7.511-16.59 16.785z" fill="currentColor"/></svg>