<svg width="76" height="92" viewBox="-6 -6 82 98" fill="none" xmlns="http://www.w3.org/2000/svg">
<path fill-rule="evenodd" clip-rule="evenodd" d="M74.3524 33.0767C74.4232 34.5737 74.5922 36.1442 74.756 37.6635L74.7585 37.6864C75.0237 40.1554 75.2982 42.7101 75.1858 45.1707C75.019 48.8614 74.6538 52.6014 74.3004 56.2201L74.2948 56.2778L74.2903 56.324C74.027 59.0249 73.7552 61.8134 73.5676 64.5525C73.4837 65.7906 73.4457 67.3493 73.4077 69.0001C73.2111 77.3274 72.9412 88.7314 66.7498 90.9723C65.7671 91.3271 64.69 91.5006 63.4569 91.5006C62.009 91.5006 60.5558 91.2614 59.1918 91.017C57.8406 90.773 56.5678 90.7345 55.2209 90.6939L55.2136 90.6937L55.1984 90.6932C54.349 90.6671 53.4891 90.6406 52.5968 90.5609C49.7638 90.3073 46.8811 90.2744 44.6862 90.2744C43.7405 90.2744 42.7922 90.2823 41.8427 90.2902C41.6305 90.292 41.4183 90.2937 41.206 90.2954C40.0371 90.3073 38.867 90.3165 37.6969 90.3165C31.9379 90.3165 25.2656 90.1206 18.9773 87.7825C17.0222 87.057 16.1168 86.0135 15.3856 83.6504C13.4607 77.4207 13.4725 71.0188 13.4856 64.8259C13.4895 62.8492 13.4935 60.8042 13.4358 58.7802L13.3769 56.7181L13.3759 56.6865C13.1692 49.5887 12.9554 42.2475 13.2432 34.9916C13.4699 29.2363 13.922 23.7531 16.9187 19.9273C19.6089 16.493 23.9029 15.7715 27.032 15.7715C27.5561 15.7715 28.0698 15.7925 28.5651 15.8293C32.048 16.0856 35.6147 16.2144 39.0635 16.3366C39.1866 16.3411 39.3097 16.3455 39.4328 16.35C41.8466 16.4374 44.2599 16.5248 46.6662 16.6586C49.458 16.8164 52.2962 16.6819 55.0491 16.5514L55.1166 16.5482C57.0127 16.4575 58.9703 16.3655 60.9031 16.3655L62.5109 16.3603C66.6922 16.3603 73.0133 16.3603 74.1795 24.4431C74.4311 26.1819 74.3904 27.9996 74.3511 29.7568L74.3495 29.835C74.3264 30.9146 74.3025 32.0269 74.3524 33.0767ZM66.6922 71.9651C66.7721 70.4392 66.856 68.8607 67.1049 67.3611L67.1075 67.3457C68.5008 58.9439 69.8171 51.0057 69.4963 41.6721C69.4622 40.8441 69.4518 39.9175 69.4413 38.941C69.4072 35.8209 69.3679 32.2868 68.5057 29.7213C67.5989 27.1243 65.2455 26.2411 62.8371 25.6759L62.5829 25.5918C61.1363 25.095 60.3082 24.8151 58.8524 24.9781C58.3189 24.9807 57.81 25.0914 57.3168 25.1987L57.3101 25.2002C56.1531 25.4525 55.0995 25.3986 54.0618 25.2895L54.0435 25.2877C53.4805 25.2304 52.8987 25.1713 52.3373 25.1713C48.5989 25.1713 44.8199 24.9662 41.1653 24.7678L41.1227 24.7655C37.9322 24.5927 34.6332 24.414 31.3744 24.3735C30.9931 24.3682 30.6053 24.3551 30.2148 24.3406C29.73 24.3235 29.2399 24.3065 28.7511 24.3065C26.8524 24.3065 24.9079 24.5509 23.5478 26.3265C22.1241 28.1853 21.8668 30.5364 21.5944 33.0256L21.594 33.0294L21.5926 33.0426C21.4646 34.2161 21.3323 35.4298 21.0686 36.6108C20.154 40.7127 19.8224 44.691 19.5827 49.7786C19.4385 51.2493 19.4385 52.4716 19.58 53.9029L20.0046 58.7513C20.4593 63.9677 20.9297 69.3615 21.4931 74.7356C22.1221 80.7379 26.42 81.2794 30.5751 81.7999L30.7085 81.8169C31.2694 81.8885 31.8216 81.959 32.3559 82.043C40.7093 83.3639 47.1327 83.954 53.1825 83.954C54.5702 83.954 55.9539 83.9198 57.2931 83.8554L57.6233 83.8397C61.2189 83.6701 63.816 83.5466 65.5286 79.2988C66.4229 77.0832 66.5596 74.4844 66.6919 71.9706L66.6922 71.9651Z" fill="white"/>
<path fill-rule="evenodd" clip-rule="evenodd" d="M7.96769 20.838C8.23238 19.6525 8.36472 18.4342 8.49314 17.2566C8.76569 14.766 9.02252 12.4134 10.4469 10.5537C11.807 8.77811 13.7516 8.53366 15.6502 8.53366C16.139 8.53366 16.6291 8.55074 17.1139 8.56783C17.5044 8.58228 17.8922 8.59543 18.2736 8.60069C21.5468 8.64143 24.8607 8.82149 28.0644 8.99497C31.719 9.19343 35.498 9.39846 39.2364 9.39846C39.8038 9.39846 40.3922 9.45891 40.9609 9.51674C42.5818 9.68366 44.1633 9.10011 45.7279 9.26309C46.7762 9.37217 47.6253 10.1331 48.6644 10.2041C52.0018 10.4315 54.6762 7.06297 54.5767 3.91131C54.5609 3.39611 54.4718 2.86251 54.177 2.43931C53.7603 1.84263 53.0213 1.57977 52.3307 1.3524C50.7007 0.814857 49.4951 0.5888 47.7995 0.594057C45.8668 0.594057 43.9091 0.686057 42.0131 0.776743C39.2391 0.908171 36.3773 1.04617 33.5627 0.887143C31.0337 0.746514 28.4969 0.657143 25.96 0.565143C22.5112 0.442914 18.9444 0.314114 15.4616 0.0578286C14.9662 0.0210286 14.4526 0 13.9284 0C10.7993 0 6.50534 0.721543 3.81521 4.15577C0.818447 7.98166 0.366378 13.4649 0.139689 19.2201C-0.148587 26.4868 0.0663093 33.8389 0.273344 40.9466L0.332309 43.0087C0.389964 45.0327 0.386033 47.0777 0.382102 49.0544C0.376861 51.98 -1.16804 65.3686 4.23321 64.881C5.28017 64.7864 6.18038 64.0412 6.73203 63.1435C9.9699 57.8772 7.40162 48.7101 6.90369 42.9785L6.47914 38.1301C6.33762 36.6988 6.33762 35.4765 6.48176 34.0058C6.72155 28.9182 7.05438 24.9412 7.96769 20.838Z" fill="white"/>
</svg>
