<svg viewBox="0 0 835 339" fill="none" xmlns="http://www.w3.org/2000/svg">
  <path d="M388.605 212.545C387.628 216.948 386.65 221.84 385.673 227.221C384.695 232.439 383.962 237.494 383.473 242.386C383.147 247.278 382.147 251.681 382.473 255.595C382.962 259.508 384.021 262.28 385.65 263.911C388.42 264.4 391.597 263.259 395.181 260.487C398.766 257.551 402.269 253.882 405.69 249.48C409.111 245.077 413.207 240.348 415.977 235.293C418.746 230.075 420.701 225.509 421.842 221.595C422.494 219.639 423.064 217.6 423.553 215.48C424.041 213.361 424.286 211.159 424.286 208.876C424.286 207.572 425.1 206.349 426.73 205.207C428.522 203.903 429.988 203.169 431.129 203.006C431.943 202.843 432.839 203.006 433.817 203.495C434.957 203.984 435.935 204.718 436.75 205.696C437.727 206.512 438.542 207.572 439.193 208.876C440.008 210.018 440.415 211.241 440.415 212.545C440.741 217.437 441.23 222.818 441.882 228.689C442.533 234.559 442.267 240.429 443.081 246.3C444.059 252.17 445.036 257.878 446.014 263.422C446.991 268.966 447.969 273.939 448.946 278.342C449.435 280.136 448.946 282.174 447.48 284.457C446.014 286.74 444.385 288.126 442.592 288.615C441.126 288.942 439.578 288.778 437.949 288.126C436.483 287.474 435.342 286.169 434.528 284.213C433.713 281.93 432.898 279.158 432.084 275.896C431.432 272.472 430.78 268.966 430.129 265.379C429.64 261.628 429.151 258.122 428.662 254.861C428.174 251.436 427.848 248.583 427.685 246.3C425.241 250.703 422.308 255.187 418.887 259.753C415.628 264.156 412.044 268.232 408.134 271.983C404.387 275.57 400.395 278.424 396.159 280.544C392.086 282.5 387.85 283.234 383.451 282.745C376.934 281.93 371.965 275.815 368.543 264.4C367.24 259.834 366.588 254.779 366.588 249.235C366.751 243.691 368.158 238.228 368.81 232.847C369.625 227.303 370.521 222.085 371.498 217.193C372.639 212.301 373.616 208.306 374.431 205.207C374.757 203.903 375.408 202.761 376.386 201.783C377.364 200.641 378.504 200.234 379.807 200.56C382.251 201.049 384.451 202.517 386.406 204.963C388.524 207.409 389.257 209.936 388.605 212.545Z" fill="currentColor"/>
  <path d="M513.525 211.811C513.199 210.018 512.873 208.306 512.548 206.675C512.222 205.044 511.407 203.984 510.104 203.495C507.334 202.68 504.401 202.598 501.306 203.25C498.21 203.903 495.359 204.963 492.752 206.43C490.145 207.735 487.946 209.284 486.154 211.078C484.362 212.708 483.384 214.176 483.221 215.48C482.732 217.926 483.384 220.291 485.176 222.574C486.968 224.857 489.575 227.14 492.997 229.423C498.699 232.847 504.646 236.353 510.837 239.94C517.028 243.528 521.242 247.197 525.478 250.947C529.714 254.698 532.565 258.856 534.031 263.422C535.66 267.825 535.335 272.88 533.054 278.587C531.261 282.99 527.922 286.577 523.034 289.349C518.146 292.121 512.77 294.323 506.904 295.953C501.039 297.421 495.174 298.481 489.308 299.133C483.443 299.622 478.474 299.867 474.401 299.867C473.423 299.867 472.201 299.541 470.735 298.889C469.432 298.073 468.128 297.176 466.825 296.198C465.684 295.22 464.625 294.241 463.648 293.263C462.833 292.121 462.426 291.143 462.426 290.328C462.426 287.392 463.729 285.354 466.336 284.213C468.943 283.071 471.631 282.5 474.401 282.5C478.311 282.5 482.466 282.337 486.865 282.011C491.426 281.522 495.744 280.87 499.817 280.054C503.89 279.076 507.556 277.853 510.814 276.385C514.073 274.918 516.354 273.043 517.657 270.76C518.798 268.803 518.065 266.52 515.458 263.911C513.014 261.139 509.674 258.285 505.438 255.35C501.365 252.415 496.884 249.561 491.997 246.789C487.272 244.017 484.199 241.489 480.777 239.206C477.356 236.924 474.423 234.233 471.979 231.135C469.536 227.873 467.988 223.878 467.336 219.149C467.173 214.91 468.069 210.833 470.024 206.919C471.979 203.006 474.505 199.582 477.6 196.646C480.859 193.548 484.525 191.102 488.598 189.308C492.671 187.515 496.744 186.618 500.817 186.618C507.823 186.944 513.607 188.901 518.168 192.488C522.73 195.913 525.419 201.049 526.233 207.898C526.233 210.181 525.826 212.056 525.011 213.524C524.36 214.991 523.138 215.888 521.346 216.214C519.065 216.54 517.191 216.296 515.725 215.48C514.421 214.502 513.688 213.279 513.525 211.811Z" fill="currentColor"/>
  <path d="M567.747 176.589C567.747 180.503 567.665 184.906 567.502 189.798C567.502 194.69 567.502 199.745 567.502 204.963C567.665 210.181 567.747 215.562 567.747 221.106C567.909 226.65 568.072 231.95 568.235 237.005C569.865 233.744 571.82 230.564 574.101 227.466C576.382 224.204 578.907 221.351 581.677 218.905C584.609 216.459 587.623 214.502 590.719 213.034C593.977 211.567 597.48 210.833 601.227 210.833C605.301 210.833 608.885 212.138 611.981 214.747C615.239 217.356 618.009 220.862 620.29 225.264C622.734 229.504 624.77 234.315 626.399 239.696C628.029 244.914 628.332 250.295 629.31 255.839C630.45 261.22 631.265 266.438 631.753 271.493C632.242 276.385 632.649 280.625 632.975 284.213C632.975 286.822 632.324 288.942 631.02 290.572C629.717 292.203 628.169 293.018 626.377 293.018C625.073 293.018 623.444 292.203 621.489 290.572C619.697 288.778 618.394 286.659 617.579 284.213C617.09 282.256 616.601 279.402 616.113 275.652C615.624 271.901 615.054 267.906 614.402 263.666C613.75 259.264 612.936 254.861 611.958 250.458C610.981 246.055 610.759 242.142 609.292 238.717C607.989 235.13 606.36 232.358 604.405 230.401C602.449 228.444 600.169 227.71 597.562 228.2C593.489 229.015 589.904 231.869 586.809 236.76C583.876 241.652 580.269 247.197 577.988 253.393C575.87 259.59 574.078 265.868 572.612 272.227C571.308 278.587 570.331 283.723 569.679 287.637C569.027 290.572 568.131 292.611 566.991 293.752C566.013 294.73 564.873 295.22 563.569 295.22C562.266 295.22 561.044 294.567 559.904 293.263C558.926 291.958 557.949 290.409 556.971 288.615C556.156 286.659 555.423 284.702 554.772 282.745C554.12 280.625 553.713 278.831 553.55 277.364C552.735 268.558 552.083 260.16 551.595 252.17C551.106 244.017 551.698 235.864 551.373 227.71C551.21 219.557 551.128 211.241 551.128 202.761C551.128 194.119 551.291 184.906 551.617 175.122C551.617 166.968 554.55 163.299 560.415 164.115C562.37 164.441 564.081 165.908 565.547 168.518C567.013 170.963 567.747 173.654 567.747 176.589Z" fill="currentColor"/>
  <path d="M668.699 176.589C668.699 180.503 668.618 184.906 668.455 189.798C668.455 194.69 668.455 199.745 668.455 204.963C668.618 210.181 668.699 215.562 668.699 221.106C668.862 226.65 669.025 231.95 669.188 237.005C670.817 233.744 672.772 230.564 675.053 227.466C677.334 224.204 679.86 221.351 682.629 218.905C685.562 216.459 688.576 214.502 691.672 213.034C694.93 211.567 698.433 210.833 702.18 210.833C706.253 210.833 709.838 212.138 712.933 214.747C716.192 217.356 718.961 220.862 721.242 225.264C723.686 229.504 725.723 234.315 727.352 239.696C728.981 244.914 729.285 250.295 730.262 255.839C731.403 261.22 732.217 266.438 732.706 271.493C733.195 276.385 733.602 280.625 733.928 284.213C733.928 286.822 733.276 288.942 731.973 290.572C730.67 292.203 729.122 293.018 727.33 293.018C726.026 293.018 724.397 292.203 722.442 290.572C720.65 288.778 719.346 286.659 718.532 284.213C718.043 282.256 717.554 279.402 717.065 275.652C716.577 271.901 716.006 267.906 715.355 263.666C714.703 259.264 713.888 254.861 712.911 250.458C711.933 246.055 711.711 242.142 710.245 238.717C708.942 235.13 707.312 232.358 705.357 230.401C703.402 228.444 701.121 227.71 698.514 228.2C694.441 229.015 690.857 231.869 687.761 236.76C684.829 241.652 681.222 247.197 678.941 253.393C676.823 259.59 675.031 265.868 673.564 272.227C672.261 278.587 671.284 283.723 670.632 287.637C669.98 290.572 669.084 292.611 667.944 293.752C666.966 294.73 665.826 295.22 664.522 295.22C663.219 295.22 661.997 294.567 660.856 293.263C659.879 291.958 658.901 290.409 657.924 288.615C657.109 286.659 656.376 284.702 655.724 282.745C655.073 280.625 654.665 278.831 654.502 277.364C653.688 268.558 653.036 260.16 652.547 252.17C652.058 244.017 652.651 235.864 652.325 227.71C652.162 219.557 652.081 211.241 652.081 202.761C652.081 194.119 652.244 184.906 652.57 175.122C652.57 166.968 655.502 163.299 661.368 164.115C663.323 164.441 665.033 165.908 666.5 168.518C667.966 170.963 668.699 173.654 668.699 176.589Z" fill="currentColor"/>
  <path d="M769.652 176.589C769.652 180.503 769.57 184.906 769.408 189.798C769.408 194.69 769.408 199.745 769.408 204.963C769.57 210.181 769.652 215.562 769.652 221.106C769.815 226.65 769.978 231.95 770.141 237.005C771.77 233.744 773.725 230.564 776.006 227.466C778.287 224.204 780.812 221.351 783.582 218.905C786.515 216.459 789.529 214.502 792.624 213.034C795.883 211.567 799.386 210.833 803.133 210.833C807.206 210.833 810.79 212.138 813.886 214.747C817.144 217.356 819.914 220.862 822.195 225.264C824.639 229.504 826.675 234.315 828.305 239.696C829.934 244.914 830.237 250.295 831.215 255.839C832.355 261.22 833.17 266.438 833.659 271.493C834.147 276.385 834.555 280.625 834.881 284.213C834.881 286.822 834.229 288.942 832.926 290.572C831.622 292.203 830.074 293.018 828.282 293.018C826.979 293.018 825.35 292.203 823.394 290.572C821.602 288.778 820.299 286.659 819.484 284.213C818.996 282.256 818.507 279.402 818.018 275.652C817.529 271.901 816.959 267.906 816.307 263.666C815.656 259.264 814.841 254.861 813.863 250.458C812.886 246.055 812.664 242.142 811.198 238.717C809.894 235.13 808.265 232.358 806.31 230.401C804.355 228.444 802.074 227.71 799.467 228.2C795.394 229.015 791.81 231.869 788.714 236.76C785.781 241.652 782.175 247.197 779.894 253.393C777.776 259.59 775.984 265.868 774.517 272.227C773.214 278.587 772.236 283.723 771.585 287.637C770.933 290.572 770.037 292.611 768.896 293.752C767.919 294.73 766.778 295.22 765.475 295.22C764.171 295.22 762.95 294.567 761.809 293.263C760.832 291.958 759.854 290.409 758.876 288.615C758.062 286.659 757.329 284.702 756.677 282.745C756.025 280.625 755.618 278.831 755.455 277.364C754.64 268.558 753.989 260.16 753.5 252.17C753.011 244.017 753.604 235.864 753.278 227.71C753.115 219.557 753.034 211.241 753.034 202.761C753.034 194.119 753.197 184.906 753.522 175.122C753.522 166.968 756.455 163.299 762.32 164.115C764.275 164.441 765.986 165.908 767.452 168.518C768.919 170.963 769.652 173.654 769.652 176.589Z" fill="currentColor"/>
  <path d="M239.877 168.374C237.044 185.742 234.956 213.103 233.615 230.458C232.272 247.599 231.248 264.737 230.545 281.872C230.349 283.801 230.577 285.512 231.229 287.005C231.88 288.284 232.743 289.454 233.819 290.515C234.681 291.578 235.648 292.426 236.72 293.059C237.578 293.694 238.327 294.009 238.967 294.003C241.312 293.983 243.648 292.892 245.975 290.731C248.086 288.357 249.339 285.348 249.734 281.705C250.303 273.564 250.871 265.422 251.44 257.281C252.009 249.14 252.684 240.998 253.466 232.854C275.908 238.868 299.622 244.121 324.609 248.614C323.797 253.331 322.985 258.049 322.173 262.767C321.362 267.484 320.443 272.203 319.418 276.922C319.212 277.78 319.118 279.173 319.135 281.1C318.938 283.029 319.063 285.062 319.508 287.199C319.74 289.338 320.397 291.366 321.48 293.284C322.348 294.989 323.745 296.262 325.671 297.102C327.379 297.301 329.186 296.75 331.094 295.448C333.002 294.147 334.27 292.851 334.898 291.561C337.399 284.902 339.782 276.959 342.047 267.732C344.099 258.507 345.934 248.856 347.552 238.779C348.955 228.489 349.93 218.096 350.478 207.599C351.026 197.103 352.045 173.04 351.535 163.409C351.08 160.201 349.888 157.963 347.958 156.695C345.813 155.215 343.887 154.483 342.182 154.498C340.263 154.514 338.669 155.171 337.401 156.466C335.92 157.764 334.761 159.38 333.925 161.314C333.089 163.249 332.466 165.181 332.057 167.112C331.647 169.042 331.448 170.65 331.459 171.934C331.306 178.787 330.045 199.534 329.676 206.175C329.307 212.816 328.619 219.459 327.611 226.106C316.724 224.702 304.873 222.771 292.058 220.313C279.241 217.642 267.167 214.642 255.837 211.315C256.221 206.387 256.711 201.458 257.307 196.529C257.902 191.385 258.498 176.348 259.095 171.418C259.063 167.778 257.969 164.576 255.812 161.811C253.443 159.049 251.085 157.677 248.74 157.698C247.034 157.713 245.336 158.584 243.645 160.312C241.741 162.041 240.485 164.729 239.877 168.374Z" fill="currentColor"/>
  <path d="M180.897 140.044L180.655 140.004L181.822 134.193C181.978 133.095 181.705 131.978 181.061 131.076C180.417 130.173 179.45 129.552 178.361 129.342L167.456 127.561C167.456 127.561 168.5 122 171.5 105C174.5 88 174.626 70.7819 173.479 60.9102C172.332 51.0385 171.199 41.0048 169.128 37.6942C167.057 34.3836 165.631 33.9161 163.256 33.1368C160.484 32.2272 155.352 34.8187 156.246 40.4933C157.14 46.1679 158.82 47.521 160 62.5C161.18 77.4791 158.692 97.5307 157 107.5C155.308 117.469 153.174 125.163 153.174 125.163L142.098 123.354C141.015 123.217 139.922 123.509 139.052 124.168C138.182 124.827 137.605 125.8 137.444 126.88L136.276 132.691L98.8653 126.581C96.5376 126.182 94.1539 126.248 91.852 126.776C89.5502 127.305 87.3759 128.284 85.4551 129.658C83.5343 131.032 81.9051 132.773 80.6618 134.781C79.4185 136.789 78.5857 139.024 78.2117 141.356L77.3301 146.754L69.8568 145.664C69.3367 145.575 68.804 145.591 68.29 145.711C67.776 145.83 67.2911 146.051 66.8636 146.361C66.4362 146.67 66.0748 147.062 65.8007 147.513C65.5266 147.964 65.3453 148.465 65.2674 148.987L59.5268 184.135C59.4331 184.657 59.4439 185.193 59.5586 185.711C59.6733 186.229 59.8897 186.72 60.1951 187.154C60.5005 187.588 60.889 187.957 61.338 188.24C61.7871 188.523 62.2878 188.715 62.8112 188.803L70.2845 189.892L55.5143 280.326C55.1203 282.668 55.1917 285.064 55.7245 287.378C56.2573 289.691 57.241 291.878 58.6194 293.811C59.9977 295.744 61.7437 297.387 63.7574 298.645C65.7711 299.903 68.0131 300.751 70.355 301.142L158.67 315.566C163.41 316.326 168.258 315.172 172.148 312.358C176.037 309.545 178.65 305.302 179.412 300.562L202.11 161.591C202.492 159.258 202.408 156.872 201.864 154.572C201.319 152.271 200.324 150.101 198.936 148.187C197.548 146.273 195.794 144.653 193.777 143.42C191.759 142.187 183.233 140.405 180.897 140.044ZM171.387 299.251C171.182 300.545 170.725 301.785 170.042 302.902C169.358 304.018 168.461 304.989 167.402 305.759C166.342 306.529 165.142 307.083 163.869 307.388C162.595 307.694 161.274 307.746 159.981 307.54L71.6659 293.116C70.3773 292.899 69.1444 292.429 68.0379 291.734C66.9315 291.038 65.9732 290.131 65.2182 289.065C64.4632 287.998 63.9263 286.793 63.6383 285.518C63.3503 284.244 63.3169 282.925 63.5401 281.637L86.2375 142.666C86.4381 141.388 86.8921 140.162 87.5727 139.062C88.2533 137.961 89.1469 137.007 90.201 136.257C91.2552 135.506 92.4486 134.973 93.7114 134.69C94.9741 134.407 96.2807 134.378 97.5545 134.607L138.3 141.262C138.508 141.296 138.711 141.385 138.928 141.421C139.146 141.457 139.366 141.436 139.575 141.47L180.848 148.211C181.056 148.245 181.258 148.335 181.476 148.37C181.693 148.406 181.914 148.385 182.122 148.419L185.87 149.031C187.153 149.219 188.386 149.661 189.496 150.331C190.606 151.001 191.572 151.885 192.337 152.933C193.101 153.98 193.65 155.169 193.95 156.431C194.25 157.692 194.295 159.001 194.084 160.281L171.387 299.251Z" fill="currentColor" stroke="currentColor" stroke-width="8"/>
  <path d="M99.125 180.405C97.4173 180.126 95.6687 180.537 94.2639 181.547C92.8592 182.557 91.9133 184.084 91.6344 185.792C91.3555 187.5 91.7664 189.248 92.7767 190.653C93.787 192.058 95.314 193.004 97.0217 193.282L168.655 204.982C170.363 205.261 172.112 204.85 173.516 203.84C174.921 202.829 175.867 201.302 176.146 199.595C176.425 197.887 176.014 196.138 175.004 194.734C173.993 193.329 172.466 192.383 170.759 192.104L99.125 180.405Z" fill="currentColor"/>
  <path d="M116.752 176.863L155.153 183.134C156.691 183.386 158.265 183.016 159.529 182.106C160.794 181.197 161.645 179.822 161.897 178.285C162.148 176.747 161.778 175.173 160.868 173.909C159.959 172.644 158.584 171.793 157.047 171.542L118.646 165.27C117.108 165.019 115.534 165.389 114.27 166.298C113.005 167.208 112.154 168.582 111.903 170.12C111.652 171.657 112.021 173.231 112.931 174.495C113.84 175.76 115.215 176.612 116.752 176.863Z" fill="currentColor"/>
  <path d="M151.763 208.706L112.747 202.334C111.185 202.079 109.586 202.455 108.301 203.379C107.016 204.303 106.151 205.7 105.896 207.261C105.641 208.823 106.016 210.423 106.94 211.707C107.865 212.992 109.261 213.857 110.823 214.113L149.839 220.485C151.401 220.74 153 220.364 154.285 219.44C155.57 218.516 156.435 217.119 156.69 215.557C156.945 213.996 156.569 212.396 155.645 211.111C154.721 209.827 153.324 208.962 151.763 208.706Z" fill="currentColor"/>
  <path d="M153.291 273.971C150.709 281.843 142.447 286.2 134.838 283.704C127.229 281.208 123.154 272.803 125.736 264.931C128.319 257.06 136.58 252.702 144.19 255.199C151.799 257.695 155.874 266.1 153.291 273.971Z" fill="currentColor"/>
</svg>
