<svg width="96" height="96" viewBox="0 0 96 96" fill="none" xmlns="http://www.w3.org/2000/svg">
<path fill-rule="evenodd" clip-rule="evenodd" d="M48 96C74.5097 96 96 74.5097 96 48C96 21.4903 74.5097 0 48 0C21.4903 0 0 21.4903 0 48C0 74.5097 21.4903 96 48 96Z" fill="white"/>
<path fill-rule="evenodd" clip-rule="evenodd" d="M35.507 25.4199C39.1688 30.0945 43.5729 34.0145 48.5288 37.2733C50.7903 38.7587 53.1255 40.1292 55.3303 41.6977C56.6719 42.6522 57.8473 43.7068 59.0886 44.7824C59.3715 45.0798 59.6543 45.3772 59.9372 45.6746C61.1522 45.9287 61.1055 46.3854 59.7958 47.0395C58.3571 49.163 55.5263 50.8671 53.6486 52.6018C51.2797 54.7883 49.0178 57.0645 46.8731 59.472C43.4424 63.3221 39.0127 67.9384 37.7366 73.0644C37.2485 75.0211 39.3863 76.7737 41.0852 75.3419C43.6945 73.1443 45.4206 70.08 47.5019 67.4053C49.6138 64.6916 51.8916 62.1176 54.3297 59.6928C56.944 57.0947 59.7507 54.7039 62.4231 52.1674C64.0741 50.5992 66.2476 48.9526 66.2671 46.4671C66.3055 41.5519 58.6491 37.4997 55.1107 35.3781C48.9239 31.6702 43.164 27.68 37.7378 22.9067C36.2345 21.5877 34.3812 23.9844 35.507 25.4199Z" fill="currentColor"/>
</svg>
