<svg width="88" height="88" viewBox="0 0 88 88" fill="none" xmlns="http://www.w3.org/2000/svg">
<path fill-rule="evenodd" clip-rule="evenodd" d="M44 88C68.3005 88 88 68.3005 88 44C88 19.6995 68.3005 0 44 0C19.6995 0 0 19.6995 0 44C0 68.3005 19.6995 88 44 88Z" fill="white"/>
<path fill-rule="evenodd" clip-rule="evenodd" d="M56.3105 58.1227C59.8275 57.8477 62.9688 60.3463 63.5481 63.8796C63.5967 64.1051 64.1449 64.2883 64.7972 64.2954C65.4494 64.3024 65.9768 64.0629 65.9976 63.7387V63.6542C66.0515 61.0431 65.0658 58.5203 63.2636 56.657C61.379 54.6982 58.7992 53.5889 56.1024 53.5778C53.3177 53.5633 50.6434 54.6825 48.6774 56.6852C48.5176 56.8626 48.367 57.0484 48.2264 57.2419C43.7708 53.0237 38.2 50.2173 32.1969 49.1667C32.0928 49.1667 31.7875 49.6106 31.503 50.2025C31.2754 50.5598 31.1394 50.9691 31.1074 51.3934C35.4609 55.5535 40.8951 58.3627 46.7692 59.4897C46.006 60.9909 45.6064 62.6553 45.6034 64.3447C45.6075 67.2102 46.7392 69.9552 48.7468 71.969C50.7304 73.9485 53.4117 75.0396 56.1926 74.9989C58.8868 74.9567 61.4527 73.8227 63.3191 71.8492C65.096 69.9725 66.0518 67.447 65.9699 64.845C65.9699 64.535 65.4425 64.2883 64.7972 64.2954C64.1518 64.3024 63.6106 64.4856 63.5828 64.7111V64.7745C62.973 68.3153 59.7949 70.7924 56.2689 70.4751C53.1208 70.1748 50.7192 67.4839 50.7336 64.2731C50.748 61.0623 53.1738 58.3938 56.3244 58.1227H56.3105Z" fill="#060A17"/>
<path fill-rule="evenodd" clip-rule="evenodd" d="M22.6975 34.1668C19.8677 34.1522 17.1501 35.2842 15.1523 37.3097C13.1217 39.3628 11.9869 42.1507 12.0001 45.0536C12.0134 47.9565 13.1736 50.7337 15.2228 52.7677C17.2386 54.7698 19.9632 55.8734 22.7892 55.8322C25.527 55.7896 28.1344 54.6426 30.0311 52.6466C31.8367 50.7485 32.808 48.1943 32.7248 45.5626C32.7248 45.249 32.1889 44.9995 31.5331 45.0067C30.8773 45.0138 30.3273 45.1991 30.2991 45.4271V45.4913C29.6794 49.0725 26.4498 51.5778 22.8667 51.2568C19.6677 50.9531 17.2271 48.2315 17.2418 44.9842C17.2565 41.7368 19.7215 39.0378 22.9231 38.7636C26.4971 38.4855 29.6892 41.0126 30.2779 44.5862C30.3273 44.8142 30.8843 44.9995 31.5472 45.0067C32.21 45.0138 32.7459 44.7715 32.7671 44.4436V44.3581C32.8218 41.7173 31.8201 39.1658 29.9888 37.2812C28.0702 35.2965 25.4429 34.1743 22.6975 34.1668Z" fill="#060A17"/>
<path fill-rule="evenodd" clip-rule="evenodd" d="M31.5205 39.8241C31.8117 40.4095 32.1098 40.8538 32.2138 40.8326C38.217 39.7926 43.7907 36.9909 48.2495 32.7719C48.4228 32.9693 48.5615 33.195 48.7487 33.3784C50.7305 35.3595 53.4093 36.4515 56.1876 36.4108C58.8794 36.3686 61.443 35.2336 63.3077 33.2585C65.0829 31.3803 66.0378 28.8527 65.956 26.2485C65.956 25.9382 65.4291 25.6914 64.7844 25.6984C64.1396 25.7055 63.5989 25.8888 63.5711 26.1145V26.178C62.9619 29.7217 59.7867 32.2008 56.2639 31.8833C53.1187 31.5827 50.7192 28.8896 50.7337 25.6762C50.7481 22.4627 53.1716 19.792 56.3194 19.5206C59.8332 19.2454 62.9716 21.7461 63.5503 25.2823C63.5989 25.508 64.1466 25.6914 64.7983 25.6984C65.4499 25.7055 65.9768 25.4657 65.9976 25.1413V25.0849C66.0515 22.4716 65.0666 19.9468 63.2661 18.082C61.3798 16.118 58.7967 15.0075 56.0975 15.0001C53.3154 14.9857 50.6435 16.1058 48.6794 18.1102C46.6823 20.1425 45.5665 22.9025 45.5804 25.776C45.5966 27.423 45.9907 29.0434 46.7312 30.5081C40.8716 31.6607 35.4573 34.4915 31.1254 38.6676C31.0491 38.731 31.2224 39.2458 31.5205 39.8241Z" fill="#060A17"/>
</svg>
